<svg width="85" height="83" viewBox="0 0 85 83" fill="none" xmlns="http://www.w3.org/2000/svg">
<path d="M28.5903 71.2943H17.0328C15.7029 71.2943 14.625 70.2076 14.625 68.8673V49.0871C14.625 47.7467 15.703 46.6602 17.0328 46.6602H28.5904C29.9203 46.6602 30.9982 47.7467 30.9982 49.0871V68.8673C30.9982 70.2076 29.9201 71.2943 28.5903 71.2943Z" fill="#799350"/>
<path d="M22.8113 65.2266C22.4948 65.2266 22.1841 65.3563 21.9601 65.5821C21.7363 65.808 21.6074 66.121 21.6074 66.4401C21.6074 66.7593 21.7361 67.0724 21.9601 67.298C22.1841 67.5237 22.4948 67.6537 22.8113 67.6537C23.128 67.6537 23.4387 67.5238 23.6624 67.298C23.8864 67.0724 24.0154 66.7593 24.0154 66.4401C24.0154 66.121 23.8865 65.8079 23.6624 65.5821C23.4385 65.3561 23.1279 65.2266 22.8113 65.2266Z" fill="#424750"/>
<path d="M69.0966 33.7754C68.7799 33.7754 68.4693 33.9051 68.2454 34.1309C68.0216 34.3567 67.8926 34.6698 67.8926 34.9889C67.8926 35.3081 68.0214 35.6212 68.2454 35.8467C68.4693 36.0725 68.7799 36.2024 69.0966 36.2024C69.4144 36.2024 69.7238 36.0726 69.9478 35.8467C70.1727 35.6212 70.3016 35.3081 70.3016 34.9889C70.3016 34.6698 70.1727 34.3567 69.9478 34.1309C69.7238 33.9051 69.4144 33.7754 69.0966 33.7754Z" fill="#AE431E"/>
<path fill-rule="evenodd" clip-rule="evenodd" d="M73.8561 24.3828C74.1754 24.3828 74.4818 24.5107 74.7076 24.7382C74.9335 24.9658 75.06 25.2744 75.0603 25.5963V71.2946C75.0603 71.9646 74.5211 72.5081 73.8563 72.5081H37.5133C36.0469 72.5081 34.6311 71.9732 33.526 71.0018L32.0946 69.7435C31.7045 71.3288 30.2812 72.5079 28.5893 72.5079H17.0316C15.0401 72.5079 13.4198 70.8748 13.4199 68.8673V49.0871C13.4199 47.0799 15.0401 45.4467 17.0316 45.4467H28.5892C29.826 45.4467 30.9193 46.077 31.5706 47.0355L35.3941 43.1814C35.8252 42.747 36.7098 42.0128 38.2224 41.1985C40.5307 39.9558 43.036 39.0672 43.036 39.0672V29.0683V25.5978C43.036 24.9278 43.575 24.3844 44.2399 24.3844L73.8561 24.3828ZM17.0316 70.0809H28.589C29.2528 70.0809 29.7929 69.5365 29.7931 68.8674V49.0873C29.7931 48.4182 29.2529 47.8738 28.5892 47.8738H24.0143V61.8532C24.0143 62.5232 23.4751 63.0667 22.8103 63.0667C22.1454 63.0667 21.6064 62.5232 21.6064 61.8532V47.8738H17.0316C16.3676 47.8738 15.8275 48.4182 15.8275 49.0873V68.8674C15.8275 69.5367 16.3676 70.0809 17.0316 70.0809ZM35.1082 69.1727L32.2009 66.6169V49.8326L36.0999 45.8451C36.0999 45.8451 37.7562 44.3993 38.8717 43.7652C41.2224 42.4287 43.0326 41.9037 43.0326 41.9037V45.1659L41.8662 48.2942C42.0026 48.8314 42.4826 49.207 43.0326 49.207L63.2467 49.2086C64.1761 49.2086 64.9322 49.9706 64.9322 50.9075C64.9322 51.8443 64.1761 52.6065 63.2467 52.6065H51.1182C50.4533 52.6065 49.9143 53.1498 49.9143 53.82C49.9143 54.4901 50.4533 55.0335 51.1182 55.0335H67.015C67.9444 55.0335 68.7006 55.7957 68.7006 56.7325C68.7006 57.6693 67.9444 58.4314 67.015 58.4314H51.1182C50.4533 58.4314 49.9143 58.9749 49.9143 59.6449C49.9143 60.3151 50.4533 60.8585 51.1182 60.8585H64.439C65.3684 60.8585 66.1245 61.6206 66.1245 62.5574C66.1245 63.4943 65.3684 64.2563 64.439 64.2563H51.1182C50.4533 64.2563 49.9143 64.7998 49.9143 65.47C49.9143 66.1401 50.4533 66.6835 51.1182 66.6835H60.3323C61.2618 66.6835 62.0178 67.4455 62.0178 68.3823C62.0178 69.3193 61.2618 70.0814 60.3323 70.0814H37.513C36.6287 70.0809 35.7747 69.7584 35.1082 69.1727ZM64.4256 68.382C64.4256 68.9876 64.2945 69.5625 64.061 70.0809H72.6524V27.3259L45.4439 27.3273V46.7814L63.2466 46.7816C65.5037 46.7816 67.3398 48.6325 67.3398 50.9075C67.3398 51.5131 67.2088 52.0879 67.0149 52.6065C67.316 52.6065 67.6094 52.6405 67.8924 52.7029V38.8938C67.8924 38.2238 68.4315 37.6803 69.0963 37.6803C69.7612 37.6803 70.3002 38.2238 70.3002 38.8938C70.3002 39.5638 70.3002 54.2743 70.3002 54.2743C70.8074 54.9612 71.1083 55.812 71.1083 56.7324C71.1083 58.6295 69.831 60.2307 68.0977 60.7105C68.3752 61.2666 68.5323 61.8936 68.5323 62.5571C68.5323 64.8322 66.696 66.6831 64.439 66.6831H64.061C64.2945 67.2016 64.4256 67.7764 64.4256 68.382Z" fill="#424750"/>
<path fill-rule="evenodd" clip-rule="evenodd" d="M49.3633 27.666H55.4628V46.1105H49.3633V27.666Z" fill="#AE431E"/>
</svg>
