<svg width="85" height="83" viewBox="0 0 85 83" fill="none" xmlns="http://www.w3.org/2000/svg">
<path fill-rule="evenodd" clip-rule="evenodd" d="M36.8939 14.6191L61.367 22.3572V34.4752L53.2703 37.1423V25.6251L27.793 17.4072L36.8939 14.6191Z" fill="#799350"/>
<path fill-rule="evenodd" clip-rule="evenodd" d="M72.4978 20.4717C72.4361 20.2257 72.3214 20.0463 72.166 19.9075C72.0933 19.8339 72.0123 19.7689 71.9246 19.7143C71.8751 19.6846 71.8238 19.6585 71.771 19.6359C71.7343 19.6147 43.2605 10.4363 43.2605 10.4363C43.006 10.3546 42.7327 10.3546 42.4783 10.4363L14.0813 19.5784C13.5445 19.7492 13.1789 20.2523 13.1777 20.8217V52.1659C13.1782 52.7358 13.544 53.2395 14.0813 53.4106L24.0537 56.8218C24.3081 56.9035 24.8872 54.5451 24.8872 54.5451L15.7593 51.2113V21.7764L24.3648 19.0063L48.5023 26.7784L42.8655 28.5925L21.3096 21.655C20.6302 21.4364 19.9044 21.8163 19.6884 22.5039C19.4723 23.1912 19.848 23.9256 20.5274 24.1442L41.5747 30.9185V46.4414C41.5747 47.1627 42.1526 47.7474 42.8655 47.7474C43.5783 47.7474 44.1563 47.1627 44.1563 46.4414V30.9185L51.4711 28.5676V37.2318C51.4711 37.9529 52.049 38.5378 52.7619 38.5378C52.8931 38.5369 53.0236 38.5161 53.1491 38.4763L56.1604 37.5047C56.8399 37.286 57.2154 36.5518 56.9994 35.8643C56.7834 35.1769 56.0577 34.7968 55.3782 35.0153L54.0487 35.4437V27.7384L60.7168 25.5913V33.2966L59.2506 33.7682C58.5711 33.9868 58.1956 34.721 58.4116 35.4085C58.5814 35.9494 59.0771 36.3172 59.6378 36.3188C59.7692 36.3189 59.9 36.2983 60.025 36.2574L62.3922 35.496C62.9296 35.3251 63.2953 34.8214 63.2958 34.2514V24.7555L69.9717 22.6084V51.2099L68.2937 51.7518C67.6078 51.9484 67.2092 52.6702 67.4033 53.3643C67.5976 54.0583 68.3111 54.4616 68.997 54.2652C69.0209 54.2583 71.6498 53.4106 71.6498 53.4106C72.1871 53.2395 72.5529 52.7358 72.5534 52.1659V20.8217C72.5507 20.7031 72.532 20.5853 72.4978 20.4717ZM52.7605 25.4072L28.6231 17.6364L33.6158 16.0286L57.7532 23.7994L52.7605 25.4072ZM37.874 14.6574L62.0102 22.4295L67.0029 20.8217L42.8655 13.051L37.874 14.6574Z" fill="#424750"/>
<path d="M19.8585 43.0566C19.1946 43.0566 18.6562 43.6014 18.6562 44.2731V53.1098C18.6562 53.7816 19.1946 54.3262 19.8585 54.3262C20.5225 54.3262 21.0608 53.7816 21.0608 53.1098V44.2731C21.0608 43.6014 20.5225 43.0566 19.8585 43.0566Z" fill="#AE431E"/>
<path d="M19.8579 39.4258C19.5419 39.4258 19.2318 39.5558 19.0084 39.7821C18.7848 40.0082 18.6562 40.3219 18.6562 40.6428C18.6562 40.9613 18.7848 41.275 19.0084 41.5025C19.2318 41.7286 19.5419 41.8574 19.8579 41.8574C20.174 41.8574 20.4839 41.7286 20.7075 41.5025C20.931 41.275 21.0595 40.9625 21.0595 40.6428C21.0595 40.3219 20.931 40.0082 20.7075 39.7821C20.4839 39.5558 20.174 39.4258 19.8579 39.4258Z" fill="#424750"/>
<path d="M24.4731 54.4688C24.1571 54.4688 23.8471 54.5988 23.6235 54.825C23.4 55.0511 23.2715 55.3648 23.2715 55.6858C23.2715 56.0044 23.4 56.318 23.6235 56.5454C23.8471 56.7715 24.1571 56.9003 24.4731 56.9003C24.7891 56.9003 25.0991 56.7715 25.3226 56.5454C25.5462 56.318 25.6747 56.0055 25.6747 55.6858C25.6747 55.3648 25.5462 55.0511 25.3226 54.825C25.0991 54.5988 24.7891 54.4688 24.4731 54.4688Z" fill="#AE431E"/>
<path d="M63.5164 38.1113C62.8037 38.1113 62.2257 38.696 62.2257 39.4173V53.0327C62.2187 59.5213 57.0217 64.7795 50.6087 64.7868H35.1195C34.4067 64.7868 33.8287 65.3714 33.8287 66.0928V68.808L24.4628 62.1747L33.8287 55.5415V58.2567C33.8287 58.978 34.4067 59.5627 35.1195 59.5627H46.7364C51.0119 59.5585 54.4769 56.0527 54.4811 51.7267V51.1714C54.4811 50.4502 53.9031 49.8654 53.1903 49.8654C52.4774 49.8654 51.8995 50.4502 51.8995 51.1714V51.7267C51.8995 54.6119 49.5879 56.9506 46.7364 56.9506H36.4103V53.0327C36.41 52.3114 35.8317 51.727 35.1189 51.7273C34.8546 51.7275 34.5966 51.8097 34.3798 51.9631L21.4722 61.1051C20.8882 61.519 20.7466 62.3335 21.1556 62.924C21.2419 63.0487 21.3491 63.157 21.4722 63.2443L34.3798 72.3865C34.9641 72.7998 35.7689 72.6556 36.1772 72.0645C36.3289 71.8453 36.4101 71.5843 36.4103 71.3169V67.3988H50.6087C58.4464 67.3894 64.7981 60.9629 64.8072 53.0327V39.4173C64.8072 38.696 64.2294 38.1113 63.5164 38.1113Z" fill="#AE431E"/>
<path fill-rule="evenodd" clip-rule="evenodd" d="M23.2715 31.6445H36.1827V35.026L29.4128 51.8758H25.2424L31.8122 35.4596H23.2715V31.6445Z" fill="#799350"/>
</svg>
