<svg width="85" height="83" viewBox="0 0 85 83" fill="none" xmlns="http://www.w3.org/2000/svg">
<path fill-rule="evenodd" clip-rule="evenodd" d="M46.3464 20.75L70.9127 28.4882V40.6062L62.7849 43.2731V31.7558L37.2109 23.5383L46.3464 20.75Z" fill="#799350"/>
<path d="M47.5174 20.7198L72.2419 28.6826C72.775 28.8543 73.1369 29.3538 73.1369 29.9181V40.4333C73.1369 40.9831 72.793 41.4731 72.2788 41.6561L69.8624 42.5164C69.1923 42.755 68.4573 42.4008 68.2207 41.7255C67.984 41.0501 68.3353 40.3092 69.0054 40.0707L70.5636 39.516V30.8651L43.0304 21.9977C41.8498 21.6175 41.8327 19.9399 43.0052 19.5354L52.0634 16.4097C52.3234 16.3201 52.6052 16.3165 52.8673 16.4L81.6877 25.5666C82.2231 25.7369 82.5871 26.2373 82.5871 26.8033V58.4284C82.5871 58.9941 82.2236 59.4944 81.6885 59.665L52.8681 68.8546C52.614 68.9356 52.3414 68.935 52.0876 68.8531L23.6265 59.6636C23.0938 59.4916 22.7324 58.9924 22.7324 58.4284V54.1481C22.7324 53.4318 23.3084 52.8511 24.019 52.8511C24.7296 52.8511 25.3057 53.4318 25.3057 54.1481V57.4821L52.4826 66.257L80.0139 57.4785V27.7539L52.4965 19.0019L47.5174 20.7198Z" fill="#424750"/>
<path d="M80.9127 25.7384C81.5902 25.5225 82.3131 25.9009 82.5274 26.5838C82.7418 27.2667 82.3662 27.9954 81.6887 28.2115L52.8683 37.401C52.6151 37.4817 52.3434 37.4816 52.0904 37.4004L30.0963 30.3502C29.4191 30.1331 29.0447 29.4038 29.2601 28.7212C29.4755 28.0388 30.1989 27.6614 30.8761 27.8785L52.4812 34.804L80.9127 25.7384Z" fill="#AE431E"/>
<path d="M65.3223 41.2216C65.997 40.997 66.7246 41.3662 66.9475 42.0463C67.1703 42.7265 66.804 43.4598 66.1293 43.6845L62.9564 44.7408C62.124 45.0179 61.2662 44.3929 61.2662 43.5093V33.9411L33.733 25.0736C32.5461 24.6913 32.5373 23.002 33.72 22.6071L44.5283 18.9997C45.2027 18.7745 45.9307 19.1433 46.1541 19.8232C46.3775 20.5031 46.0117 21.2369 45.3371 21.462L38.2835 23.8163L62.9445 31.7586C63.4776 31.9303 63.8395 32.4297 63.8395 32.994V41.7151L65.3223 41.2216Z" fill="#424750"/>
<path d="M25.2979 27.9808V34.2299C25.2979 34.946 24.7218 35.5267 24.0112 35.5267C23.3007 35.5267 22.7246 34.946 22.7246 34.2299V27.0286C22.7246 26.4621 23.0895 25.9611 23.6258 25.7913L33.8484 22.556C34.5263 22.3414 35.2485 22.7215 35.4614 23.4049C35.6743 24.0881 35.2972 24.8161 34.6194 25.0306L25.2979 27.9808Z" fill="#AE431E"/>
<path d="M36.1643 37.0898C36.8749 37.0898 37.451 37.6704 37.451 38.3866C37.451 39.1029 36.8749 39.6836 36.1643 39.6836H13.023C12.3124 39.6836 11.7363 39.1029 11.7363 38.3866C11.7363 37.6704 12.3124 37.0898 13.023 37.0898H36.1643Z" fill="#AE431E"/>
<path d="M23.2972 42.7969C24.0077 42.7969 24.5838 43.3774 24.5838 44.0937C24.5838 44.8099 24.0077 45.3905 23.2972 45.3905H3.24366C2.53308 45.3905 1.95703 44.8099 1.95703 44.0937C1.95703 43.3774 2.53308 42.7969 3.24366 42.7969H23.2972Z" fill="#AE431E"/>
<path d="M9.16358 39.6836C9.87416 39.6836 10.4502 39.103 10.4502 38.3867C10.4502 37.6705 9.87416 37.0898 9.16358 37.0898C8.453 37.0898 7.87695 37.6705 7.87695 38.3867C7.87695 39.103 8.453 39.6836 9.16358 39.6836Z" fill="#AE431E"/>
<path d="M12.7651 51.0977C13.4757 51.0977 14.0518 50.517 14.0518 49.8008C14.0518 49.0845 13.4757 48.5039 12.7651 48.5039C12.0546 48.5039 11.4785 49.0845 11.4785 49.8008C11.4785 50.517 12.0546 51.0977 12.7651 51.0977Z" fill="#AE431E"/>
<path d="M29.473 48.5039C30.1835 48.5039 30.7596 49.0846 30.7596 49.8009C30.7596 50.5171 30.1835 51.0977 29.473 51.0977H16.6246C15.9139 51.0977 15.3379 50.5171 15.3379 49.8009C15.3379 49.0846 15.9139 48.5039 16.6246 48.5039H29.473Z" fill="#AE431E"/>
<path d="M53.9385 67.5025C53.9385 68.2187 53.3624 68.7993 52.6519 68.7993C51.9413 68.7993 51.3652 68.2187 51.3652 67.5025V61.088C51.3652 60.3717 51.9413 59.791 52.6519 59.791C53.3624 59.791 53.9385 60.3717 53.9385 61.088V67.5025Z" fill="#424750"/>
<path d="M53.9385 55.8762C53.9385 56.5925 53.3624 57.1732 52.6519 57.1732C51.9413 57.1732 51.3652 56.5925 51.3652 55.8762V37.3497C51.3652 36.6334 51.9413 36.0527 52.6519 36.0527C53.3624 36.0527 53.9385 36.6334 53.9385 37.3497V55.8762Z" fill="#424750"/>
</svg>
