<svg width="34" height="56" viewBox="0 0 34 56" fill="none" xmlns="http://www.w3.org/2000/svg">
<path d="M29.0372 31.1437C25.8236 29.7964 22.8274 28.5363 19.5171 27.1445C17.9793 31.3651 15.8697 35.9195 19.6552 41.6268C21.6754 44.6722 21.1248 49.4848 21.3234 53.5139C21.3607 54.2383 19.363 55.7174 18.3752 55.6576C17.3506 55.5985 15.4951 53.9982 15.5769 53.2405C16.3366 46.1876 12.1991 41.1759 8.74245 35.8012C7.79251 34.3262 7.58273 32.3857 6.93976 30.3661C6.15042 30.2701 5.03218 30.1717 3.92817 29.9961C1.03628 29.544 -0.486114 28.298 0.5539 25.0523C1.50384 22.0766 1.87777 18.9146 2.93319 15.9834C3.46416 14.516 5.11811 12.2078 5.9596 12.3296C8.05859 12.6346 9.98869 14.1096 13.0631 15.6601C17.6457 14.03 19.2842 14.7379 23.3957 21.3839C25.9658 25.533 27.5783 26.0559 31.8088 23.9509C33.1813 26.5566 33.8628 28.281 31.5991 31.5577C29.1931 35.0435 29.3282 40.2332 28.3291 44.6722C27.4911 48.3939 26.6194 52.1092 25.7631 55.828L24.1246 55.4732C25.7791 47.282 27.4325 39.0984 29.0372 31.1437ZM26.0784 6.60058C25.9848 10.0711 23.0146 12.8343 19.5882 12.6422C16.2999 12.4578 13.6587 9.70924 13.6439 6.44716C13.6284 3.02992 16.5429 0.135565 19.9616 0.174211C23.4034 0.2111 26.1714 3.12419 26.0784 6.60058Z" fill="#DC5C31"/>
<path d="M6.26086 36C7.82473 39.1532 10.028 41.4778 9.66476 43.3041C8.90564 47.126 6.94887 50.7669 5.09344 54.2819C4.72306 54.9805 2.25429 55.3359 1.37546 54.8183C0.499599 54.3083 -0.259522 52.2606 0.0847788 51.2921C1.78317 46.4865 3.8632 41.8145 6.26086 36Z" fill="#DC5C31"/>
</svg>
