<svg width="85" height="83" viewBox="0 0 85 83" fill="none" xmlns="http://www.w3.org/2000/svg">
<path fill-rule="evenodd" clip-rule="evenodd" d="M65.4132 45.6066L65.3773 45.3731C65.1139 43.6701 65.0937 43.0136 65.288 42.301C65.4722 41.6266 65.8159 41.0863 66.8859 39.7817C68.3325 38.0182 68.6956 37.3556 68.6954 36.3129C68.6954 35.2706 68.3322 34.6078 66.8857 32.8445L66.7694 32.7028C65.824 31.5474 65.4646 30.9724 65.288 30.3255C65.1545 29.8358 65.1292 29.2662 65.2065 28.4997C65.2385 28.1826 65.2767 27.905 65.3775 27.2536C65.7187 25.049 65.6976 24.3354 65.1866 23.4703C64.6845 22.6199 63.9975 22.1975 62.0585 21.4565L61.9005 21.3962C60.279 20.7783 59.6943 20.472 59.1738 19.9622C58.6535 19.4523 58.3414 18.8801 57.7108 17.2919L57.649 17.1366C56.8926 15.237 56.461 14.5633 55.5932 14.0716C54.7528 13.5951 53.9392 13.5621 51.8926 13.862L51.691 13.8919C51.0696 13.9841 50.7888 14.0211 50.4681 14.0522C49.6823 14.1285 49.0987 14.1038 48.597 13.9725C47.9074 13.792 47.3556 13.455 46.0235 12.4065C44.2239 10.9899 43.5486 10.6348 42.4865 10.6348C41.557 10.6348 40.7581 11.0158 39.466 12.0038C39.3398 12.1003 39.2166 12.1963 38.9499 12.406C37.6175 13.4547 37.0657 13.7916 36.3762 13.9722C35.6475 14.1629 34.9755 14.1429 33.2374 13.8848C30.989 13.5507 30.2619 13.5713 29.3803 14.071C28.4832 14.5794 28.0928 15.2007 27.2629 17.2911C26.6325 18.8789 26.32 19.4514 25.7996 19.9613C25.3237 20.4274 24.7003 20.7681 23.4368 21.2559C23.3405 21.2931 23.2644 21.3223 23.0729 21.3952L22.9143 21.4557C20.9756 22.1966 20.2888 22.619 19.7865 23.4692C19.2993 24.2943 19.2656 25.0931 19.572 27.1002L19.6023 27.2966C19.6964 27.9053 19.7341 28.1803 19.766 28.4943C19.8438 29.2633 19.8185 29.8343 19.6848 30.3247C19.4996 31.0029 19.1511 31.5464 18.0147 32.9322C17.8657 33.114 17.7715 33.2303 17.6775 33.3482C16.6669 34.6163 16.2773 35.3997 16.2773 36.3129C16.2773 37.225 16.6667 38.0088 17.6742 39.2734C17.7733 39.3979 17.8721 39.5193 18.0867 39.7812C19.1565 41.0854 19.5006 41.6261 19.6846 42.3007C19.8183 42.7906 19.8436 43.3606 19.7661 44.1279C19.734 44.4447 19.6959 44.7218 19.5951 45.3725C19.2541 47.5767 19.275 48.2905 19.786 49.1557C20.2883 50.006 20.9752 50.4284 22.9142 51.1694L23.0721 51.2297C24.6936 51.8476 25.2785 52.1539 25.799 52.6639C26.3193 53.1736 26.6316 53.7458 27.262 55.334L27.3238 55.4894C28.0803 57.389 28.512 58.0626 29.3797 58.5544C30.2201 59.0307 31.0338 59.0638 33.081 58.7638L33.2832 58.7338C33.9055 58.6414 34.1871 58.6044 34.5084 58.5733C34.8038 58.5446 35.0643 58.5306 35.3044 58.5306C35.7104 58.5306 36.0609 58.5709 36.3758 58.6532C37.0654 58.8338 37.6172 59.1708 38.9493 60.2192C40.7491 61.6359 41.4242 61.9911 42.4864 61.9911C43.5484 61.9911 44.2236 61.6359 46.0232 60.2193L46.1681 60.1054C47.3477 59.1789 47.9351 58.8266 48.5966 58.6534C49.3253 58.4627 49.9964 58.4826 51.7354 58.7409C53.9837 59.0749 54.7109 59.0543 55.5926 58.5547C56.4896 58.0463 56.8802 57.425 57.71 55.3345C58.3403 53.7469 58.6528 53.1742 59.1732 52.6645C59.6938 52.1543 60.2783 51.8483 61.8999 51.2304L62.0585 51.1699C63.9972 50.429 64.6842 50.0066 65.1863 49.1564C65.6735 48.3313 65.7074 47.5325 65.4132 45.6066ZM66.009 36.3132C66.009 36.5333 65.6744 37.0537 64.7934 38.128C63.4522 39.7632 62.9979 40.5019 62.6932 41.6187C62.379 42.77 62.3946 43.6556 62.7269 45.8047L62.7566 45.9976C62.9223 47.0837 62.9422 47.6983 62.8622 47.8339C62.7699 47.9902 62.2105 48.2821 61.0839 48.7126L60.9278 48.7721C58.9062 49.5423 58.1241 49.9665 57.2754 50.7979C56.4267 51.6294 55.993 52.3967 55.2068 54.3771C54.7117 55.6244 54.4192 56.1746 54.2493 56.271C54.0957 56.3581 53.4586 56.3299 52.1374 56.1336C49.9788 55.813 49.0762 55.7987 47.9042 56.1056C46.8074 56.3927 45.993 56.8658 44.4896 58.0466L44.3427 58.1622C43.2443 59.0266 42.7135 59.354 42.4864 59.354C42.2592 59.354 41.7282 59.0264 40.6299 58.162C38.9609 56.8485 38.2072 56.4036 37.0681 56.1055C36.5205 55.9619 35.9415 55.8937 35.3044 55.8937C34.9731 55.8937 34.6266 55.9119 34.2446 55.949C33.8636 55.9859 33.5481 56.0275 32.7984 56.1388L32.6018 56.1679C31.4913 56.3306 30.8629 56.35 30.723 56.2707C30.5629 56.18 30.2654 55.6331 29.8259 54.5294L29.765 54.3764C28.9787 52.3957 28.5455 51.629 27.6969 50.7974C26.8482 49.9661 26.0656 49.5415 24.0444 48.7715L23.8888 48.7122C22.7618 48.2815 22.2025 47.9896 22.1101 47.8331C22.0219 47.6839 22.052 47.0549 22.258 45.7243C22.3602 45.0645 22.4021 44.7575 22.4394 44.3882C22.5489 43.3044 22.5037 42.4397 22.2796 41.6184C21.9733 40.4961 21.5154 39.7565 20.1083 38.041C19.9659 37.8671 19.8767 37.7572 19.7904 37.6489C19.2382 36.9558 18.9636 36.4852 18.9636 36.3129C18.9636 36.1403 19.2388 35.6687 19.7933 34.973C19.8829 34.8607 19.9746 34.7477 20.1797 34.4975C21.5206 32.8624 21.9748 32.1237 22.2797 31.0069C22.504 30.1847 22.549 29.3192 22.4392 28.2336C22.4015 27.8612 22.3591 27.5531 22.246 26.8209L22.2164 26.6282C22.0505 25.5419 22.0306 24.9273 22.1106 24.7917C22.203 24.6354 22.7623 24.3437 23.8889 23.913L24.045 23.8535C24.2407 23.779 24.3193 23.7488 24.4202 23.7099C26.0523 23.0798 26.915 22.5942 27.6975 21.8275C28.5461 20.996 28.9796 20.229 29.766 18.2487C30.2611 17.0012 30.5535 16.451 30.7236 16.3546C30.8772 16.2676 31.5142 16.2957 32.8354 16.492C34.9927 16.8125 35.8965 16.8268 37.0683 16.5201C38.2133 16.2204 38.9673 15.7724 40.7191 14.3936C40.8954 14.255 41.0069 14.1683 41.1168 14.0841C41.8269 13.5412 42.3082 13.2718 42.4865 13.2718C42.7136 13.2718 43.2446 13.5993 44.343 14.4638C46.0118 15.7773 46.7656 16.2221 47.9046 16.5204C48.743 16.7398 49.6255 16.7839 50.7326 16.6763C51.1128 16.6394 51.4271 16.5979 52.1753 16.4869L52.3721 16.4579C53.4818 16.2953 54.1099 16.2759 54.2498 16.3552C54.4101 16.4459 54.7073 16.9928 55.1469 18.0965L55.2078 18.2495C55.9941 20.2304 56.4273 20.9969 57.2761 21.8285C58.1247 22.6598 58.9068 23.0842 60.9282 23.8544L61.0839 23.9137C62.2108 24.3444 62.7701 24.6363 62.8625 24.7928C62.9507 24.9422 62.9206 25.5711 62.7147 26.9016C62.6125 27.5625 62.5704 27.8699 62.5331 28.2399C62.4239 29.3226 62.4691 30.1869 62.6931 31.0076C62.9865 32.083 63.4696 32.8811 64.6752 34.3544L64.7932 34.4982C65.6744 35.5726 66.009 36.0931 66.009 36.3132Z" fill="#799350"/>
<path fill-rule="evenodd" clip-rule="evenodd" d="M43.0098 52.9125C52.1289 52.9125 59.5215 45.7127 59.5215 36.8312C59.5215 27.9498 52.1289 20.75 43.0098 20.75C33.8906 20.75 26.498 27.9498 26.498 36.8312C26.498 45.7127 33.8906 52.9125 43.0098 52.9125ZM53.164 27.244C52.5231 26.7869 51.626 26.9264 51.1602 27.5555L39.5344 43.2631L34.0661 39.0037C33.4457 38.5203 32.5433 38.6222 32.0508 39.2312C31.5583 39.8403 31.662 40.7261 32.2827 41.2095L38.9234 46.3822C39.5628 46.8802 40.4961 46.7551 40.9757 46.107L53.4815 29.2106C53.9471 28.5815 53.805 27.7009 53.164 27.244Z" fill="#799350"/>
<path d="M43.0094 19.7129C43.6079 19.7129 44.0933 20.186 44.0933 20.7696C44.0933 21.3532 43.6079 21.8263 43.0094 21.8263C34.5085 21.8263 27.6171 28.5444 27.6171 36.8316C27.6171 45.1189 34.5085 51.837 43.0094 51.837C51.5101 51.837 58.4015 45.1189 58.4015 36.8316C58.4015 36.248 58.8867 35.7749 59.4854 35.7749C60.084 35.7749 60.5693 36.248 60.5693 36.8316C60.5693 46.2861 52.7074 53.9504 43.0094 53.9504C33.3112 53.9504 25.4492 46.2861 25.4492 36.8316C25.4492 27.3772 33.3112 19.7129 43.0094 19.7129Z" fill="#AE431E"/>
<path d="M55.5689 60.8006C55.5689 60.1685 56.1016 59.6562 56.7588 59.6562C57.4159 59.6562 57.9486 60.1685 57.9486 60.8006V71.4802C57.9486 72.2169 57.2354 72.7616 56.4893 72.5947L43.1138 69.6032L29.5257 72.5956C28.7807 72.7596 28.0703 72.2154 28.0703 71.4802V64.3604C28.0703 63.7285 28.603 63.2162 29.2602 63.2162C29.9173 63.2162 30.45 63.7285 30.45 64.3604V70.0443L42.8503 67.3135C43.0265 67.2747 43.2094 67.275 43.3854 67.3144L55.5689 70.0394V60.8006Z" fill="#AE431E"/>
<path d="M29.3808 59.6562C29.0362 59.6562 28.6981 59.795 28.4542 60.0362C28.2106 60.2775 28.0703 60.612 28.0703 60.9544C28.0703 61.2943 28.2106 61.6287 28.4542 61.8713C28.6981 62.1126 29.0362 62.25 29.3808 62.25C29.7255 62.25 30.0636 62.1126 30.3073 61.8713C30.551 61.6287 30.6912 61.2955 30.6912 60.9544C30.6912 60.612 30.551 60.2775 30.3073 60.0362C30.0636 59.795 29.7255 59.6562 29.3808 59.6562Z" fill="#AE431E"/>
<path d="M47.203 19.7129C46.8583 19.7129 46.5202 19.8517 46.2765 20.0928C46.0328 20.3342 45.8926 20.6688 45.8926 21.0111C45.8926 21.3509 46.0328 21.6855 46.2765 21.9279C46.5202 22.1692 46.8583 22.3066 47.203 22.3066C47.5476 22.3066 47.8857 22.1692 48.1295 21.9279C48.3732 21.6855 48.5135 21.3521 48.5135 21.0111C48.5135 20.6688 48.3732 20.3342 48.1295 20.0928C47.8857 19.8517 47.5476 19.7129 47.203 19.7129Z" fill="#424750"/>
</svg>
